<svg xmlns="http://www.w3.org/2000/svg" width="517.59" height="496.071" viewBox="0 0 517.59 496.071"><g transform="translate(643.052 657.341) rotate(120)" opacity="0.37"><path d="M-216.4,368.567c37.047,8.907,240.989,147.607,233.488,256.674C9.627,733.663-111.488,726.635-155.762,730.414s-111.387,36.45-155.211-12.827-15.783-80.615-20.548-134.628S-361.028,333.8-216.4,368.567Z" transform="translate(0 -11.968)" fill="#e9eaea"/><g transform="translate(-329.156 321.176)"><path d="M-314.34,395.386a6.105,6.105,0,0,1-5.292,6.822,6.105,6.105,0,0,1-6.822-5.293,6.1,6.1,0,0,1,5.293-6.822A6.1,6.1,0,0,1-314.34,395.386Z" transform="translate(326.503 -340.225)" fill="#e9eaea"/><path d="M-276.305,339.52l-.6.249a9.1,9.1,0,0,1-7.56.093,6.33,6.33,0,0,0-6.655.612,6.257,6.257,0,0,0-2.447,5.823,6.327,6.327,0,0,0,8.7,5.041,6.293,6.293,0,0,0,3.53-3.741,8.755,8.755,0,0,1,4.9-5.195l1.254-.523a7.4,7.4,0,0,1,7.705,1.476,12.639,12.639,0,0,0,14.725,1.322,12.7,12.7,0,0,0,5.706-14.312,12.635,12.635,0,0,0-17.01-8.215,12.632,12.632,0,0,0-7.769,11.18A7.131,7.131,0,0,1-276.305,339.52Z" transform="translate(317.409 -321.176)" fill="#e9eaea"/></g></g></svg>