<svg xmlns="http://www.w3.org/2000/svg" width="805.341" height="714.36" viewBox="0 0 805.341 714.36"><g transform="translate(1089.9 462.926) rotate(97)" opacity="0.37"><path d="M-120.761,371.861C-54.11,387.885,312.8,637.421,299.31,833.647,285.9,1028.709,68,1016.064-11.658,1022.863s-200.4,65.577-279.242-23.077-28.4-145.035-36.968-242.211S-380.954,309.3-120.761,371.861Z" transform="translate(0 13.046)" fill="#e9eaea"/><g transform="translate(-323.612 321.176)"><path d="M-304.621,399.654a10.984,10.984,0,0,1-9.522,12.274,10.984,10.984,0,0,1-12.273-9.523,10.983,10.983,0,0,1,9.522-12.273A10.982,10.982,0,0,1-304.621,399.654Z" transform="translate(326.503 -300.413)" fill="#e9eaea"/><path d="M-262.466,354.179l-1.075.448c-4.486,1.869-9.454,2.246-13.6.168a11.389,11.389,0,0,0-11.974,1.1,11.256,11.256,0,0,0-4.4,10.477,11.384,11.384,0,0,0,15.66,9.069,11.322,11.322,0,0,0,6.351-6.731,15.752,15.752,0,0,1,8.815-9.346l2.257-.941c4.735-1.97,9.985-.7,13.862,2.655a22.739,22.739,0,0,0,26.492,2.378,22.857,22.857,0,0,0,10.266-25.749,22.732,22.732,0,0,0-30.6-14.78A22.727,22.727,0,0,0-254.4,343.041,12.83,12.83,0,0,1-262.466,354.179Z" transform="translate(336.416 -321.176)" fill="#e9eaea"/></g></g></svg>