<svg xmlns="http://www.w3.org/2000/svg" width="678.657" height="659.953" viewBox="0 0 678.657 659.953"><g transform="translate(949.61 158.802) rotate(66)" opacity="0.37"><path d="M-170.643,370.143c51.211,12.312,333.129,204.043,322.76,354.812C141.81,874.831-25.612,865.115-86.814,870.339s-153.975,50.386-214.555-17.731-21.818-111.437-28.4-186.1S-370.562,322.077-170.643,370.143Z" fill="#e9eaea"/><path d="M-309.69,397.428a8.439,8.439,0,0,1-7.316,9.431,8.44,8.44,0,0,1-9.43-7.317,8.439,8.439,0,0,1,7.316-9.43A8.438,8.438,0,0,1-309.69,397.428Z" fill="#e9eaea"/><path d="M-269.684,346.534l-.826.344c-3.447,1.436-7.264,1.726-10.451.129a8.751,8.751,0,0,0-9.2.846,8.649,8.649,0,0,0-3.382,8.05,8.747,8.747,0,0,0,12.032,6.968,8.7,8.7,0,0,0,4.88-5.172,12.1,12.1,0,0,1,6.773-7.181l1.734-.723a10.234,10.234,0,0,1,10.651,2.04,17.472,17.472,0,0,0,20.355,1.827,17.562,17.562,0,0,0,7.888-19.784,17.466,17.466,0,0,0-23.514-11.356,17.462,17.462,0,0,0-10.739,15.454A9.858,9.858,0,0,1-269.684,346.534Z" fill="#e9eaea"/></g></svg>