<svg xmlns="http://www.w3.org/2000/svg" viewBox="0 0 1385.46 842.21"><defs><style>.cls-1{opacity:0.45;}.cls-2{fill:#e7e9e9;}.cls-3{opacity:0.57;}.cls-4{fill:none;stroke:#e7e9e9;stroke-miterlimit:10;stroke-width:2px;}</style></defs><title>Asset 1</title><g id="Layer_2" data-name="Layer 2"><g id="Layer_1-2" data-name="Layer 1"><g class="cls-1"><path class="cls-2" d="M504.5,87.8a5.63,5.63,0,1,1-5.62,5.62A5.63,5.63,0,0,1,504.5,87.8Z"/><path class="cls-2" d="M536.76,37.73a5.63,5.63,0,1,1-5.63,5.62A5.62,5.62,0,0,1,536.76,37.73Z"/><path class="cls-2" d="M536.76,87.8a5.63,5.63,0,1,1-5.63,5.62A5.62,5.62,0,0,1,536.76,87.8Z"/><path class="cls-2" d="M536.76,62.76a5.63,5.63,0,1,1-5.63,5.63A5.63,5.63,0,0,1,536.76,62.76Z"/><path class="cls-2" d="M504.5,62.76a5.63,5.63,0,1,1-5.62,5.63A5.63,5.63,0,0,1,504.5,62.76Z"/><circle class="cls-2" cx="472.25" cy="43.35" r="5.63" transform="translate(354.64 502.77) rotate(-80.89)"/><path class="cls-2" d="M472.25,62.76a5.63,5.63,0,1,1-5.63,5.63A5.62,5.62,0,0,1,472.25,62.76Z"/><path class="cls-2" d="M472.25,87.8a5.63,5.63,0,1,1-5.63,5.62A5.62,5.62,0,0,1,472.25,87.8Z"/><path class="cls-2" d="M504.5,37.73a5.63,5.63,0,1,1-5.62,5.62A5.63,5.63,0,0,1,504.5,37.73Z"/><path class="cls-2" d="M504.5,137.87a5.63,5.63,0,1,1-5.62,5.63A5.63,5.63,0,0,1,504.5,137.87Z"/><path class="cls-2" d="M504.5,112.83a5.63,5.63,0,1,1-5.62,5.63A5.63,5.63,0,0,1,504.5,112.83Z"/><path class="cls-2" d="M536.76,112.83a5.63,5.63,0,1,1-5.63,5.63A5.63,5.63,0,0,1,536.76,112.83Z"/><path class="cls-2" d="M536.76,137.87a5.63,5.63,0,1,1-5.63,5.63A5.63,5.63,0,0,1,536.76,137.87Z"/><circle class="cls-2" cx="472.25" cy="143.5" r="5.63" transform="matrix(0.16, -0.99, 0.99, 0.16, 255.76, 587.05)"/><path class="cls-2" d="M472.25,112.83a5.63,5.63,0,1,1-5.63,5.63A5.62,5.62,0,0,1,472.25,112.83Z"/><path class="cls-2" d="M633.52,137.87a5.63,5.63,0,1,1-5.62,5.63A5.63,5.63,0,0,1,633.52,137.87Z"/><path class="cls-2" d="M633.52,112.83a5.63,5.63,0,1,1-5.62,5.63A5.63,5.63,0,0,1,633.52,112.83Z"/><path class="cls-2" d="M601.27,112.83a5.63,5.63,0,1,1-5.63,5.63A5.63,5.63,0,0,1,601.27,112.83Z"/><circle class="cls-2" cx="569.01" cy="143.5" r="5.63" transform="translate(216.13 612.36) rotate(-67.19)"/><path class="cls-2" d="M569,112.83a5.63,5.63,0,1,1-5.62,5.63A5.63,5.63,0,0,1,569,112.83Z"/><path class="cls-2" d="M601.27,137.87a5.63,5.63,0,1,1-5.63,5.63A5.63,5.63,0,0,1,601.27,137.87Z"/></g><g class="cls-1"><path class="cls-2" d="M138,684.5a5.63,5.63,0,1,0,5.62,5.63A5.63,5.63,0,0,0,138,684.5Z"/><path class="cls-2" d="M105.72,634.43a5.63,5.63,0,1,0,5.63,5.63A5.63,5.63,0,0,0,105.72,634.43Z"/><path class="cls-2" d="M105.72,684.5a5.63,5.63,0,1,0,5.63,5.63A5.63,5.63,0,0,0,105.72,684.5Z"/><path class="cls-2" d="M105.72,659.47a5.63,5.63,0,1,0,5.63,5.62A5.62,5.62,0,0,0,105.72,659.47Z"/><path class="cls-2" d="M138,659.47a5.63,5.63,0,1,0,5.62,5.62A5.62,5.62,0,0,0,138,659.47Z"/><circle class="cls-2" cx="170.23" cy="640.06" r="5.63" transform="translate(-99.23 35.04) rotate(-9.11)"/><path class="cls-2" d="M170.23,659.47a5.63,5.63,0,1,0,5.63,5.62A5.62,5.62,0,0,0,170.23,659.47Z"/><path class="cls-2" d="M170.23,684.5a5.63,5.63,0,1,0,5.63,5.63A5.63,5.63,0,0,0,170.23,684.5Z"/><path class="cls-2" d="M138,634.43a5.63,5.63,0,1,0,5.62,5.63A5.63,5.63,0,0,0,138,634.43Z"/><path class="cls-2" d="M138,734.57a5.63,5.63,0,1,0,5.62,5.63A5.63,5.63,0,0,0,138,734.57Z"/><path class="cls-2" d="M138,709.54a5.63,5.63,0,1,0,5.62,5.62A5.62,5.62,0,0,0,138,709.54Z"/><path class="cls-2" d="M105.72,709.54a5.63,5.63,0,1,0,5.63,5.62A5.62,5.62,0,0,0,105.72,709.54Z"/><path class="cls-2" d="M105.72,734.57a5.63,5.63,0,1,0,5.63,5.63A5.63,5.63,0,0,0,105.72,734.57Z"/><circle class="cls-2" cx="170.23" cy="740.2" r="5.63" transform="translate(-115.09 36.31) rotate(-9.11)"/><path class="cls-2" d="M170.23,709.54a5.63,5.63,0,1,0,5.63,5.62A5.62,5.62,0,0,0,170.23,709.54Z"/><path class="cls-2" d="M9,734.57a5.63,5.63,0,1,0,5.62,5.63A5.63,5.63,0,0,0,9,734.57Z"/><path class="cls-2" d="M9,709.54a5.63,5.63,0,1,0,5.62,5.62A5.62,5.62,0,0,0,9,709.54Z"/><path class="cls-2" d="M41.21,709.54a5.63,5.63,0,1,0,5.63,5.62A5.62,5.62,0,0,0,41.21,709.54Z"/><circle class="cls-2" cx="73.47" cy="740.2" r="5.63" transform="translate(-281.24 86.38) rotate(-22.81)"/><path class="cls-2" d="M73.47,709.54a5.63,5.63,0,1,0,5.62,5.62A5.62,5.62,0,0,0,73.47,709.54Z"/><path class="cls-2" d="M41.21,734.57a5.63,5.63,0,1,0,5.63,5.63A5.63,5.63,0,0,0,41.21,734.57Z"/></g><g class="cls-1"><path class="cls-2" d="M1347.58,734.57a5.63,5.63,0,1,0,5.63,5.63A5.63,5.63,0,0,0,1347.58,734.57Z"/><path class="cls-2" d="M1315.33,684.5a5.63,5.63,0,1,0,5.62,5.63A5.63,5.63,0,0,0,1315.33,684.5Z"/><path class="cls-2" d="M1315.33,734.57a5.63,5.63,0,1,0,5.62,5.63A5.63,5.63,0,0,0,1315.33,734.57Z"/><path class="cls-2" d="M1315.33,709.54a5.63,5.63,0,1,0,5.62,5.62A5.62,5.62,0,0,0,1315.33,709.54Z"/><path class="cls-2" d="M1347.58,709.54a5.63,5.63,0,1,0,5.63,5.62A5.62,5.62,0,0,0,1347.58,709.54Z"/><circle class="cls-2" cx="1379.84" cy="690.13" r="5.63" transform="translate(-91.89 227.26) rotate(-9.11)"/><path class="cls-2" d="M1379.84,709.54a5.63,5.63,0,1,0,5.62,5.62A5.62,5.62,0,0,0,1379.84,709.54Z"/><path class="cls-2" d="M1379.84,734.57a5.63,5.63,0,1,0,5.62,5.63A5.63,5.63,0,0,0,1379.84,734.57Z"/><path class="cls-2" d="M1347.58,684.5a5.63,5.63,0,1,0,5.63,5.63A5.63,5.63,0,0,0,1347.58,684.5Z"/><path class="cls-2" d="M1347.58,784.64a5.63,5.63,0,1,0,5.63,5.63A5.63,5.63,0,0,0,1347.58,784.64Z"/><path class="cls-2" d="M1347.58,759.61a5.63,5.63,0,1,0,5.63,5.62A5.62,5.62,0,0,0,1347.58,759.61Z"/><path class="cls-2" d="M1315.33,759.61a5.63,5.63,0,1,0,5.62,5.62A5.62,5.62,0,0,0,1315.33,759.61Z"/><path class="cls-2" d="M1315.33,784.64a5.63,5.63,0,1,0,5.62,5.63A5.63,5.63,0,0,0,1315.33,784.64Z"/><circle class="cls-2" cx="1379.84" cy="790.27" r="5.63" transform="translate(-107.75 228.53) rotate(-9.11)"/><path class="cls-2" d="M1379.84,759.61a5.63,5.63,0,1,0,5.62,5.62A5.62,5.62,0,0,0,1379.84,759.61Z"/><path class="cls-2" d="M1218.56,784.64a5.63,5.63,0,1,0,5.63,5.63A5.63,5.63,0,0,0,1218.56,784.64Z"/><path class="cls-2" d="M1218.56,759.61a5.63,5.63,0,1,0,5.63,5.62A5.62,5.62,0,0,0,1218.56,759.61Z"/><path class="cls-2" d="M1250.82,759.61a5.63,5.63,0,1,0,5.62,5.62A5.62,5.62,0,0,0,1250.82,759.61Z"/><circle class="cls-2" cx="1283.07" cy="790.27" r="5.63" transform="translate(-206.04 559.28) rotate(-22.81)"/><path class="cls-2" d="M1283.07,759.61a5.63,5.63,0,1,0,5.63,5.62A5.61,5.61,0,0,0,1283.07,759.61Z"/><path class="cls-2" d="M1250.82,784.64a5.63,5.63,0,1,0,5.62,5.63A5.63,5.63,0,0,0,1250.82,784.64Z"/></g><g class="cls-3"><path class="cls-4" d="M1362,547.61c35,176.83-131,327.26-309,287-34.7-7.85-72.44-20.6-113.13-39.85-256.44-121.29-535.09,56.83-714.38,28.93-194.6-30.28-303.42-339,19.21-439.83C537.26,292.5,499.29,61.71,743.42,8c177.65-39.12,210.7,93.42,295.77,233.81C1116.56,369.43,1326.2,366.63,1362,547.61Z"/><path class="cls-2" d="M1334.84,542.44c33.52,169.42-125.54,313.54-296,275-33.25-7.52-69.4-19.74-108.38-38.18C684.72,663,417.75,833.7,246,807,59.54,778-44.72,482.13,264.38,385.58,544.67,298,508.29,76.92,742.18,25.41c170.21-37.48,201.87,89.5,283.38,224C1099.68,371.73,1300.54,369.05,1334.84,542.44Z"/><path class="cls-2" d="M30.63,536.63a16.51,16.51,0,0,1-4,23.21,17,17,0,0,1-23.52-3.91,16.51,16.51,0,0,1,4-23.21A17,17,0,0,1,30.63,536.63Z"/><path class="cls-2" d="M68.79,426.49l-1.13,1.37c-4.72,5.71-11.17,9.78-18.29,10A17.53,17.53,0,0,0,34,447.89,16.86,16.86,0,0,0,35.58,465a17.63,17.63,0,0,0,27.78.87,17,17,0,0,0,3.72-13.54,23.69,23.69,0,0,1,5.16-18.8l2.38-2.87c5-6,13-8.1,20.69-6.4a35.19,35.19,0,0,0,37.6-15.83,34.27,34.27,0,0,0-4.76-41.73A35.22,35.22,0,0,0,76,369a34.1,34.1,0,0,0-4.35,36.87C75,412.57,73.6,420.67,68.79,426.49Z"/></g></g></g></svg>