<svg xmlns="http://www.w3.org/2000/svg" width="2660.602" height="1607.387" viewBox="0 0 2660.602 1607.387">
  <g id="Group_398" data-name="Group 398" transform="translate(295.794 244.845)">
    <g id="Group_394" data-name="Group 394" transform="translate(794.105 387.646) rotate(97)" opacity="0.37">
      <path id="Path_261" data-name="Path 261" d="M-120.761,371.861C-54.11,387.885,312.8,637.421,299.31,833.647,285.9,1028.709,68,1016.064-11.658,1022.863s-200.4,65.577-279.242-23.077-28.4-145.035-36.968-242.211S-380.954,309.3-120.761,371.861Z" transform="translate(0 13.046)" fill="#e9eaea"/>
      <g id="Group_393" data-name="Group 393" transform="translate(-323.612 321.176)">
        <path id="Path_262" data-name="Path 262" d="M-304.621,399.654a10.984,10.984,0,0,1-9.522,12.274,10.984,10.984,0,0,1-12.273-9.523,10.983,10.983,0,0,1,9.522-12.273A10.982,10.982,0,0,1-304.621,399.654Z" transform="translate(326.503 -300.413)" fill="#e9eaea"/>
        <path id="Path_263" data-name="Path 263" d="M-262.466,354.179l-1.075.448c-4.486,1.869-9.454,2.246-13.6.168a11.389,11.389,0,0,0-11.974,1.1,11.256,11.256,0,0,0-4.4,10.477,11.384,11.384,0,0,0,15.66,9.069,11.322,11.322,0,0,0,6.351-6.731,15.752,15.752,0,0,1,8.815-9.346l2.257-.941c4.735-1.97,9.985-.7,13.862,2.655a22.739,22.739,0,0,0,26.492,2.378,22.857,22.857,0,0,0,10.266-25.749,22.732,22.732,0,0,0-30.6-14.78A22.727,22.727,0,0,0-254.4,343.041,12.83,12.83,0,0,1-262.466,354.179Z" transform="translate(336.416 -321.176)" fill="#e9eaea"/>
      </g>
    </g>
    <g id="Group_397" data-name="Group 397" transform="translate(432.82 1523.812) rotate(120)" opacity="0.37">
      <path id="Path_261-2" data-name="Path 261" d="M-216.4,368.567c37.047,8.907,240.989,147.607,233.488,256.674C9.627,733.663-111.488,726.635-155.762,730.414s-111.387,36.45-155.211-12.827-15.783-80.615-20.548-134.628S-361.028,333.8-216.4,368.567Z" transform="translate(0 -11.968)" fill="#e9eaea"/>
      <g id="Group_393-2" data-name="Group 393" transform="translate(-329.156 321.176)">
        <path id="Path_262-2" data-name="Path 262" d="M-314.34,395.386a6.105,6.105,0,0,1-5.292,6.822,6.105,6.105,0,0,1-6.822-5.293,6.1,6.1,0,0,1,5.293-6.822A6.1,6.1,0,0,1-314.34,395.386Z" transform="translate(326.503 -340.225)" fill="#e9eaea"/>
        <path id="Path_263-2" data-name="Path 263" d="M-276.305,339.52l-.6.249a9.1,9.1,0,0,1-7.56.093,6.33,6.33,0,0,0-6.655.612,6.257,6.257,0,0,0-2.447,5.823,6.327,6.327,0,0,0,8.7,5.041,6.293,6.293,0,0,0,3.53-3.741,8.755,8.755,0,0,1,4.9-5.195l1.254-.523a7.4,7.4,0,0,1,7.705,1.476,12.639,12.639,0,0,0,14.725,1.322,12.7,12.7,0,0,0,5.706-14.312,12.635,12.635,0,0,0-17.01-8.215,12.632,12.632,0,0,0-7.769,11.18A7.131,7.131,0,0,1-276.305,339.52Z" transform="translate(317.409 -321.176)" fill="#e9eaea"/>
      </g>
    </g>
    <g id="Group_395" data-name="Group 395" transform="translate(2635.761 -86.043) rotate(66)" opacity="0.37">
      <path id="Path_261-3" data-name="Path 261" d="M-170.643,370.143c51.211,12.312,333.129,204.043,322.76,354.812C141.81,874.831-25.612,865.115-86.814,870.339s-153.975,50.386-214.555-17.731-21.818-111.437-28.4-186.1S-370.562,322.077-170.643,370.143Z" fill="#e9eaea"/>
      <g id="Group_393-3" data-name="Group 393">
        <path id="Path_262-3" data-name="Path 262" d="M-309.69,397.428a8.439,8.439,0,0,1-7.316,9.431,8.44,8.44,0,0,1-9.43-7.317,8.439,8.439,0,0,1,7.316-9.43A8.438,8.438,0,0,1-309.69,397.428Z" fill="#e9eaea"/>
        <path id="Path_263-3" data-name="Path 263" d="M-269.684,346.534l-.826.344c-3.447,1.436-7.264,1.726-10.451.129a8.751,8.751,0,0,0-9.2.846,8.649,8.649,0,0,0-3.382,8.05,8.747,8.747,0,0,0,12.032,6.968,8.7,8.7,0,0,0,4.88-5.172,12.1,12.1,0,0,1,6.773-7.181l1.734-.723a10.234,10.234,0,0,1,10.651,2.04,17.472,17.472,0,0,0,20.355,1.827,17.562,17.562,0,0,0,7.888-19.784,17.466,17.466,0,0,0-23.514-11.356,17.462,17.462,0,0,0-10.739,15.454A9.858,9.858,0,0,1-269.684,346.534Z" fill="#e9eaea"/>
      </g>
    </g>
    <g id="Group_396" data-name="Group 396" transform="translate(2407.195 1166.255) rotate(66)" opacity="0.37">
      <path id="Path_261-4" data-name="Path 261" d="M-291.905,365.968c13.677,3.288,88.97,54.495,86.2,94.761-2.753,40.028-47.467,37.433-63.812,38.828s-41.123,13.457-57.3-4.735-5.827-29.762-7.586-49.7S-345.3,353.131-291.905,365.968Z" transform="translate(0 -31.714)" fill="#e9eaea"/>
      <g id="Group_393-4" data-name="Group 393" transform="translate(-333.531 321.176)">
        <path id="Path_262-4" data-name="Path 262" d="M-322.013,392.017a2.254,2.254,0,0,1-1.954,2.519,2.254,2.254,0,0,1-2.518-1.954,2.254,2.254,0,0,1,1.954-2.519A2.254,2.254,0,0,1-322.013,392.017Z" transform="translate(326.503 -371.652)" fill="#e9eaea"/>
        <path id="Path_263-4" data-name="Path 263" d="M-287.23,327.949l-.221.092a3.36,3.36,0,0,1-2.791.034,2.337,2.337,0,0,0-2.457.226,2.31,2.31,0,0,0-.9,2.15,2.336,2.336,0,0,0,3.213,1.861,2.323,2.323,0,0,0,1.3-1.381,3.232,3.232,0,0,1,1.809-1.918l.463-.193a2.733,2.733,0,0,1,2.845.545,4.666,4.666,0,0,0,5.436.488,4.69,4.69,0,0,0,2.107-5.284,4.665,4.665,0,0,0-6.28-3.033,4.664,4.664,0,0,0-2.868,4.127A2.633,2.633,0,0,1-287.23,327.949Z" transform="translate(302.405 -321.176)" fill="#e9eaea"/>
      </g>
    </g>
  </g>
</svg>
