<svg xmlns="http://www.w3.org/2000/svg" width="1383.208" height="842.278" viewBox="0 0 1383.208 842.278">
  <g id="Group_174" data-name="Group 174" transform="translate(-2099.404 -17.662)">
    <g id="Group_171" data-name="Group 171">
      <g id="Group_166" data-name="Group 166" opacity="0.45">
        <path id="Path_50" data-name="Path 50" d="M2600.575,137.763a5.626,5.626,0,1,1-5.626,5.626A5.626,5.626,0,0,1,2600.575,137.763Z" fill="#e1e3e3"/>
        <path id="Path_51" data-name="Path 51" d="M2632.829,87.693a5.625,5.625,0,1,1-5.626,5.626A5.625,5.625,0,0,1,2632.829,87.693Z" fill="#e1e3e3"/>
        <path id="Path_52" data-name="Path 52" d="M2632.829,137.763a5.626,5.626,0,1,1-5.626,5.626A5.625,5.625,0,0,1,2632.829,137.763Z" fill="#e1e3e3"/>
        <path id="Path_53" data-name="Path 53" d="M2632.829,112.728a5.626,5.626,0,1,1-5.626,5.626A5.626,5.626,0,0,1,2632.829,112.728Z" fill="#e1e3e3"/>
        <path id="Path_54" data-name="Path 54" d="M2600.575,112.728a5.626,5.626,0,1,1-5.626,5.626A5.627,5.627,0,0,1,2600.575,112.728Z" fill="#e1e3e3"/>
        <circle id="Ellipse_10" data-name="Ellipse 10" cx="5.626" cy="5.626" r="5.626" transform="translate(2561.874 97.982) rotate(-80.887)" fill="#e1e3e3"/>
        <path id="Path_55" data-name="Path 55" d="M2568.319,112.728a5.626,5.626,0,1,1-5.625,5.626A5.626,5.626,0,0,1,2568.319,112.728Z" fill="#e1e3e3"/>
        <path id="Path_56" data-name="Path 56" d="M2568.319,137.763a5.626,5.626,0,1,1-5.625,5.626A5.625,5.625,0,0,1,2568.319,137.763Z" fill="#e1e3e3"/>
        <path id="Path_57" data-name="Path 57" d="M2600.575,87.693a5.625,5.625,0,1,1-5.626,5.626A5.626,5.626,0,0,1,2600.575,87.693Z" fill="#e1e3e3"/>
        <g id="Group_165" data-name="Group 165">
          <path id="Path_58" data-name="Path 58" d="M2600.575,187.834a5.626,5.626,0,1,1-5.626,5.626A5.626,5.626,0,0,1,2600.575,187.834Z" fill="#e1e3e3"/>
          <path id="Path_59" data-name="Path 59" d="M2600.575,162.8a5.626,5.626,0,1,1-5.626,5.626A5.627,5.627,0,0,1,2600.575,162.8Z" fill="#e1e3e3"/>
          <path id="Path_60" data-name="Path 60" d="M2632.829,162.8a5.626,5.626,0,1,1-5.626,5.626A5.626,5.626,0,0,1,2632.829,162.8Z" fill="#e1e3e3"/>
          <path id="Path_61" data-name="Path 61" d="M2632.829,187.834a5.626,5.626,0,1,1-5.626,5.626A5.625,5.625,0,0,1,2632.829,187.834Z" fill="#e1e3e3"/>
          <circle id="Ellipse_11" data-name="Ellipse 11" cx="5.626" cy="5.626" r="5.626" transform="translate(2561.874 198.123) rotate(-80.887)" fill="#e1e3e3"/>
          <path id="Path_62" data-name="Path 62" d="M2568.319,162.8a5.626,5.626,0,1,1-5.625,5.626A5.626,5.626,0,0,1,2568.319,162.8Z" fill="#e1e3e3"/>
          <path id="Path_63" data-name="Path 63" d="M2729.595,187.834a5.626,5.626,0,1,1-5.626,5.626A5.626,5.626,0,0,1,2729.595,187.834Z" fill="#e1e3e3"/>
          <path id="Path_64" data-name="Path 64" d="M2729.595,162.8a5.626,5.626,0,1,1-5.626,5.626A5.626,5.626,0,0,1,2729.595,162.8Z" fill="#e1e3e3"/>
          <path id="Path_65" data-name="Path 65" d="M2697.34,162.8a5.626,5.626,0,1,1-5.626,5.626A5.626,5.626,0,0,1,2697.34,162.8Z" fill="#e1e3e3"/>
          <circle id="Ellipse_12" data-name="Ellipse 12" cx="5.626" cy="5.626" r="5.626" transform="matrix(0.388, -0.922, 0.922, 0.388, 2657.718, 196.464)" fill="#e1e3e3"/>
          <path id="Path_66" data-name="Path 66" d="M2665.085,162.8a5.626,5.626,0,1,1-5.626,5.626A5.625,5.625,0,0,1,2665.085,162.8Z" fill="#e1e3e3"/>
          <path id="Path_67" data-name="Path 67" d="M2697.34,187.834a5.626,5.626,0,1,1-5.626,5.626A5.626,5.626,0,0,1,2697.34,187.834Z" fill="#e1e3e3"/>
        </g>
      </g>
      <g id="Group_168" data-name="Group 168">
        <path id="Path_68" data-name="Path 68" d="M2234.05,734.465a5.626,5.626,0,1,0,5.626,5.626A5.626,5.626,0,0,0,2234.05,734.465Z" fill="#e1e3e3"/>
        <path id="Path_69" data-name="Path 69" d="M2201.8,684.394a5.626,5.626,0,1,0,5.625,5.626A5.626,5.626,0,0,0,2201.8,684.394Z" fill="#e1e3e3"/>
        <path id="Path_70" data-name="Path 70" d="M2201.8,734.465a5.626,5.626,0,1,0,5.625,5.626A5.625,5.625,0,0,0,2201.8,734.465Z" fill="#e1e3e3"/>
        <path id="Path_71" data-name="Path 71" d="M2201.8,709.429a5.626,5.626,0,1,0,5.625,5.627A5.626,5.626,0,0,0,2201.8,709.429Z" fill="#e1e3e3"/>
        <path id="Path_72" data-name="Path 72" d="M2234.05,709.429a5.626,5.626,0,1,0,5.626,5.627A5.627,5.627,0,0,0,2234.05,709.429Z" fill="#e1e3e3"/>
        <circle id="Ellipse_13" data-name="Ellipse 13" cx="5.626" cy="5.626" r="5.626" transform="translate(2259.86 685.357) rotate(-9.113)" fill="#e1e3e3"/>
        <path id="Path_73" data-name="Path 73" d="M2266.3,709.429a5.626,5.626,0,1,0,5.626,5.627A5.626,5.626,0,0,0,2266.3,709.429Z" fill="#e1e3e3"/>
        <path id="Path_74" data-name="Path 74" d="M2266.3,734.465a5.626,5.626,0,1,0,5.626,5.626A5.625,5.625,0,0,0,2266.3,734.465Z" fill="#e1e3e3"/>
        <path id="Path_75" data-name="Path 75" d="M2234.05,684.394a5.626,5.626,0,1,0,5.626,5.626A5.627,5.627,0,0,0,2234.05,684.394Z" fill="#e1e3e3"/>
        <g id="Group_167" data-name="Group 167">
          <path id="Path_76" data-name="Path 76" d="M2234.05,784.535a5.626,5.626,0,1,0,5.626,5.626A5.627,5.627,0,0,0,2234.05,784.535Z" fill="#e1e3e3"/>
          <path id="Path_77" data-name="Path 77" d="M2234.05,759.5a5.626,5.626,0,1,0,5.626,5.626A5.627,5.627,0,0,0,2234.05,759.5Z" fill="#e1e3e3"/>
          <path id="Path_78" data-name="Path 78" d="M2201.8,759.5a5.626,5.626,0,1,0,5.625,5.626A5.626,5.626,0,0,0,2201.8,759.5Z" fill="#e1e3e3"/>
          <path id="Path_79" data-name="Path 79" d="M2201.8,784.535a5.626,5.626,0,1,0,5.625,5.626A5.626,5.626,0,0,0,2201.8,784.535Z" fill="#e1e3e3"/>
          <circle id="Ellipse_14" data-name="Ellipse 14" cx="5.626" cy="5.626" r="5.626" transform="translate(2259.86 785.498) rotate(-9.113)" fill="#e1e3e3"/>
          <path id="Path_80" data-name="Path 80" d="M2266.3,759.5a5.626,5.626,0,1,0,5.626,5.626A5.625,5.625,0,0,0,2266.3,759.5Z" fill="#e1e3e3"/>
          <path id="Path_81" data-name="Path 81" d="M2105.03,784.535a5.626,5.626,0,1,0,5.626,5.626A5.626,5.626,0,0,0,2105.03,784.535Z" fill="#e1e3e3"/>
          <path id="Path_82" data-name="Path 82" d="M2105.03,759.5a5.626,5.626,0,1,0,5.626,5.626A5.626,5.626,0,0,0,2105.03,759.5Z" fill="#e1e3e3"/>
          <path id="Path_83" data-name="Path 83" d="M2137.284,759.5a5.626,5.626,0,1,0,5.626,5.626A5.626,5.626,0,0,0,2137.284,759.5Z" fill="#e1e3e3"/>
          <circle id="Ellipse_15" data-name="Ellipse 15" cx="5.626" cy="5.626" r="5.626" transform="translate(2162.173 787.157) rotate(-22.812)" fill="#e1e3e3"/>
          <path id="Path_84" data-name="Path 84" d="M2169.54,759.5a5.626,5.626,0,1,0,5.626,5.626A5.625,5.625,0,0,0,2169.54,759.5Z" fill="#e1e3e3"/>
          <path id="Path_85" data-name="Path 85" d="M2137.284,784.535a5.626,5.626,0,1,0,5.626,5.626A5.626,5.626,0,0,0,2137.284,784.535Z" fill="#e1e3e3"/>
        </g>
      </g>
      <g id="Group_170" data-name="Group 170">
        <path id="Path_86" data-name="Path 86" d="M3443.653,784.535a5.626,5.626,0,1,0,5.626,5.626A5.626,5.626,0,0,0,3443.653,784.535Z" fill="#e1e3e3"/>
        <path id="Path_87" data-name="Path 87" d="M3411.4,734.465a5.625,5.625,0,1,0,5.626,5.626A5.626,5.626,0,0,0,3411.4,734.465Z" fill="#e1e3e3"/>
        <path id="Path_88" data-name="Path 88" d="M3411.4,784.535a5.626,5.626,0,1,0,5.626,5.626A5.626,5.626,0,0,0,3411.4,784.535Z" fill="#e1e3e3"/>
        <path id="Path_89" data-name="Path 89" d="M3411.4,759.5a5.626,5.626,0,1,0,5.626,5.626A5.626,5.626,0,0,0,3411.4,759.5Z" fill="#e1e3e3"/>
        <path id="Path_90" data-name="Path 90" d="M3443.653,759.5a5.626,5.626,0,1,0,5.626,5.626A5.626,5.626,0,0,0,3443.653,759.5Z" fill="#e1e3e3"/>
        <circle id="Ellipse_16" data-name="Ellipse 16" cx="5.626" cy="5.626" r="5.626" transform="translate(3469.462 735.427) rotate(-9.113)" fill="#e1e3e3"/>
        <path id="Path_91" data-name="Path 91" d="M3475.908,759.5a5.626,5.626,0,1,0,5.626,5.626A5.626,5.626,0,0,0,3475.908,759.5Z" fill="#e1e3e3"/>
        <path id="Path_92" data-name="Path 92" d="M3475.908,784.535a5.626,5.626,0,1,0,5.626,5.626A5.626,5.626,0,0,0,3475.908,784.535Z" fill="#e1e3e3"/>
        <path id="Path_93" data-name="Path 93" d="M3443.653,734.465a5.625,5.625,0,1,0,5.626,5.626A5.625,5.625,0,0,0,3443.653,734.465Z" fill="#e1e3e3"/>
        <g id="Group_169" data-name="Group 169">
          <path id="Path_94" data-name="Path 94" d="M3443.653,834.606a5.625,5.625,0,1,0,5.626,5.626A5.625,5.625,0,0,0,3443.653,834.606Z" fill="#e1e3e3"/>
          <path id="Path_95" data-name="Path 95" d="M3443.653,809.571a5.626,5.626,0,1,0,5.626,5.625A5.625,5.625,0,0,0,3443.653,809.571Z" fill="#e1e3e3"/>
          <path id="Path_96" data-name="Path 96" d="M3411.4,809.571a5.626,5.626,0,1,0,5.626,5.625A5.625,5.625,0,0,0,3411.4,809.571Z" fill="#e1e3e3"/>
          <path id="Path_97" data-name="Path 97" d="M3411.4,834.606a5.625,5.625,0,1,0,5.626,5.626A5.626,5.626,0,0,0,3411.4,834.606Z" fill="#e1e3e3"/>
          <circle id="Ellipse_17" data-name="Ellipse 17" cx="5.626" cy="5.626" r="5.626" transform="translate(3469.462 835.568) rotate(-9.113)" fill="#e1e3e3"/>
          <path id="Path_98" data-name="Path 98" d="M3475.908,809.571a5.626,5.626,0,1,0,5.626,5.625A5.625,5.625,0,0,0,3475.908,809.571Z" fill="#e1e3e3"/>
          <path id="Path_99" data-name="Path 99" d="M3314.633,834.606a5.625,5.625,0,1,0,5.626,5.626A5.625,5.625,0,0,0,3314.633,834.606Z" fill="#e1e3e3"/>
          <path id="Path_100" data-name="Path 100" d="M3314.633,809.571a5.626,5.626,0,1,0,5.626,5.625A5.625,5.625,0,0,0,3314.633,809.571Z" fill="#e1e3e3"/>
          <path id="Path_101" data-name="Path 101" d="M3346.887,809.571a5.626,5.626,0,1,0,5.626,5.625A5.626,5.626,0,0,0,3346.887,809.571Z" fill="#e1e3e3"/>
          <circle id="Ellipse_18" data-name="Ellipse 18" cx="5.626" cy="5.626" r="5.626" transform="matrix(0.922, -0.388, 0.388, 0.922, 3371.776, 837.227)" fill="#e1e3e3"/>
          <path id="Path_102" data-name="Path 102" d="M3379.143,809.571a5.626,5.626,0,1,0,5.625,5.625A5.625,5.625,0,0,0,3379.143,809.571Z" fill="#e1e3e3"/>
          <path id="Path_103" data-name="Path 103" d="M3346.887,834.606a5.625,5.625,0,1,0,5.626,5.626A5.626,5.626,0,0,0,3346.887,834.606Z" fill="#e1e3e3"/>
        </g>
      </g>
    </g>
    <g id="Group_173" data-name="Group 173">
      <path id="Path_104" data-name="Path 104" d="M3476.833,565.245c34.989,176.837-131.034,327.264-309.012,287.023-34.7-7.845-72.438-20.6-113.124-39.847-256.439-121.292-535.09,56.829-714.385,28.929-194.6-30.282-303.42-339.056,19.207-439.828,292.563-91.382,254.593-322.173,498.72-375.932,177.658-39.121,210.7,93.417,295.779,233.808C3231.383,387.064,3441.027,384.266,3476.833,565.245Z" fill="none" stroke="#e1e3e3" stroke-miterlimit="10" stroke-width="2"/>
      <g id="Group_172" data-name="Group 172">
        <path id="Path_105" data-name="Path 105" d="M3449.665,560.076c33.521,169.422-125.54,313.541-296.056,274.988-33.246-7.517-69.4-19.74-108.38-38.176C2799.543,680.681,2532.576,851.334,2360.8,824.6c-186.438-29.013-290.7-324.839,18.4-421.386,280.3-87.551,243.918-308.664,477.808-360.169,170.21-37.481,201.866,89.5,283.377,224C3214.506,389.366,3415.36,386.685,3449.665,560.076Z" fill="#e1e3e3"/>
        <path id="Path_106" data-name="Path 106" d="M2145.454,554.267a16.515,16.515,0,0,1-4,23.214,17,17,0,0,1-23.52-3.909,16.515,16.515,0,0,1,4-23.213A17,17,0,0,1,2145.454,554.267Z" fill="#e1e3e3"/>
        <path id="Path_107" data-name="Path 107" d="M2183.617,444.127l-1.132,1.37c-4.721,5.711-11.173,9.778-18.3,9.979a17.537,17.537,0,0,0-15.415,10.058,16.86,16.86,0,0,0,1.63,17.142,17.626,17.626,0,0,0,27.776.876,17.017,17.017,0,0,0,3.722-13.541,23.678,23.678,0,0,1,5.164-18.8l2.375-2.874c4.983-6.028,13.011-8.1,20.694-6.4a35.17,35.17,0,0,0,37.595-15.826,34.271,34.271,0,0,0-4.757-41.736,35.227,35.227,0,0,0-52.147,2.22,34.087,34.087,0,0,0-4.352,36.874C2189.8,430.211,2188.426,438.31,2183.617,444.127Z" fill="#e1e3e3"/>
      </g>
    </g>
  </g>
</svg>
